.


[color=green]Movies : Animation : HD1080p :Arabic[/color]

 


[img]http://img402.imageshack.us/img402/8519/coverqvk.jpg[/img]





[img]http://img219.imageshack.us/img219/462/imdbt.png[/img]
[color=red]IMDB:[/color] 
http://www.imdb.com/title/tt0892769/
[color=green]Genre:[/color]Animation | Adventure | Comedy  
[color=green]Source:[/color]Blu-ray Disc  
[color=red]Language:[/color]Arabic
[color=green]File size:[/color]3.85 GiB
[color=green]Overall bit rate:[/color]5641 Kbps
[color=green]Duration:[/color]1h 37mn 
[color=green]Encoder:[/color]alrmothe



[img]http://i.imgur.com/fXeWi.png[/img]

[color=red]Video Information[/color]
Format :Matroska
Format : AVC
Format profile:High@L4.0
Video Bit rate:5000 Kbps
Frame Rate: 23.976 fps
Bit depth : 8 bits
Scan type : Progressive
Bits/(Pixel*Frame):0.133
Stream size:3.34 GiB(87%)
[color=green]Resolution:1920x816[/color]


[color=navy]Audio Information:[/color]
Format : AC-3
Bit rate mode : Constant
Bit rate : 640 Kbps
Channel(s) : 6 channels
Channel positions:Front: L C R, Side:L R,LFE
Sampling rate : 48.0 KHz
Bit depth : 16 bits
Compression mode : Lossy
Stream size:448 MiB(11%)


[color=green]SUB:[/color]Arabic .srt




[color=red]Screenshots[/color]
 
http://img411.imageshack.us/img411/3295/92623100.png
 
http://img502.imageshack.us/img502/5963/56783412.png
 
http://img502.imageshack.us/img502/8528/40007553.png
 
http://img822.imageshack.us/img822/2188/59208537.png
 
http://img13.imageshack.us/img13/8655/26700560.png

[img]http://img812.imageshack.us/img812/2370/howtotrainyourdragon201.png[/img]



Tracker
[code] 
http://p2pdl.com:2710/announce

udp://tracker.1337x.org:80/announce
 
http://exodus.desync.com/announce


 
http://ipv4.tracker.harry.lu/announce
 
http://tracker.ex.ua/announce
 
http://tracker.torrentbay.to:6969/announce


udp://tracker.istole.it:80/announce
[/code]



[img]http://torrent-stats.info/d4f7/1a6307d77.png[/img]

3 ┘ê┘è╪╣┘à┘ä ╪╣┘ä┘ë ┘à┘è╪»┘è╪º ╪│┘è┘ü╪▒ ╪¿┘ä╪º┘è ╪│╪¬┘è╪┤┘å

You can play movie on PlayStation 3 Media Server 
http://www.ps3mediaserver.org/



kmplayer ┘ä╪ú┘ü╪╢┘ä ╪¼┘ê╪»╪⌐ ╪º╪│╪¬╪«╪»┘à ╪¿╪▒┘å╪º┘à╪¼ 

For Best quality use kmplayer 3.3.0.33 
http://kmplayer.en.softonic.com/







Trailer




.